<?xml version="1.0" standalone="no"?>
<!DOCTYPE svg PUBLIC "-//W3C//DTD SVG 20010904//EN"
 "http://www.w3.org/TR/2001/REC-SVG-20010904/DTD/svg10.dtd">
<svg version="1.0" xmlns="http://www.w3.org/2000/svg"
 width="512.000000pt" height="512.000000pt" viewBox="0 0 512.000000 512.000000"
 preserveAspectRatio="xMidYMid meet">
<metadata>
Created by potrace 1.11, written by Peter Selinger 2001-2013
</metadata>
<g transform="translate(0.000000,512.000000) scale(0.100000,-0.100000)"
fill="#000000" stroke="none">
<path d="M2405 5104 c-338 -49 -713 -204 -1055 -436 -126 -85 -146 -100 -264
-203 -413 -359 -705 -854 -811 -1373 -22 -111 -23 -114 -30 -173 -3 -30 -9
-74 -13 -99 -9 -63 -9 -452 1 -525 4 -33 10 -79 12 -102 34 -268 178 -684 314
-903 12 -19 24 -43 27 -52 4 -10 10 -18 15 -18 5 0 9 -5 9 -11 0 -6 29 -52 64
-103 361 -513 873 -871 1461 -1021 72 -19 146 -36 165 -40 200 -34 274 -40
485 -40 529 0 900 116 1280 400 102 77 252 216 335 310 239 274 414 624 475
950 27 147 28 426 0 545 -3 14 -8 39 -11 55 -23 133 -180 473 -226 493 -5 2
-8 8 -8 14 0 25 -199 240 -345 373 -49 44 -96 87 -105 95 -9 8 -36 32 -60 52
-25 20 -58 48 -75 63 -16 14 -57 49 -90 77 -91 78 -223 216 -265 278 -102 150
-132 254 -146 505 -20 368 -176 639 -456 790 -63 34 -157 70 -203 79 -11 2
-42 9 -70 16 -74 17 -306 19 -410 4z m702 -1015 c58 -28 99 -73 123 -136 11
-30 20 -58 20 -64 0 -23 55 -169 90 -239 21 -41 61 -106 89 -145 92 -126 98
-235 17 -342 -35 -47 -70 -68 -141 -87 -76 -19 -138 -13 -280 27 -17 5 -108
55 -139 76 -145 98 -238 280 -238 461 1 178 75 333 202 423 83 58 169 67 257
26z"/>
</g>
</svg>
